<mxfile host="app.diagrams.net" modified="2023-09-06T22:22:46.446Z" agent="Mozilla/5.0 (Windows NT 10.0; Win64; x64) AppleWebKit/537.36 (KHTML, like Gecko) Chrome/116.0.0.0 Safari/537.36" etag="054SbmL2ZI9BMD6KGOLP" version="21.3.8" type="device">
  <diagram name="Page-1" id="HnKoSQf3VTQjja6sB8Kg">
    <mxGraphModel dx="472" dy="736" grid="1" gridSize="10" guides="1" tooltips="1" connect="1" arrows="1" fold="1" page="1" pageScale="1" pageWidth="850" pageHeight="1100" math="0" shadow="0">
      <root>
        <mxCell id="0" />
        <mxCell id="1" parent="0" />
        <mxCell id="lX8nmHgRIVnKAIbfbpKh-1" value="" style="rounded=0;whiteSpace=wrap;html=1;" vertex="1" parent="1">
          <mxGeometry x="350" y="150" width="250" height="340" as="geometry" />
        </mxCell>
        <mxCell id="lX8nmHgRIVnKAIbfbpKh-2" value="" style="ellipse;whiteSpace=wrap;html=1;aspect=fixed;" vertex="1" parent="1">
          <mxGeometry x="200" y="240" width="60" height="60" as="geometry" />
        </mxCell>
      </root>
    </mxGraphModel>
  </diagram>
</mxfile>
